# xmcd CD database file
#
# Track frame offsets:
#	150
#	22856
#	45814
#	64262
#	77868
#	99889
#	122893
#	147348
#	167257
#	184265
#	206714
#	224513
#	247932
#	267017
#
# Disc length: 3833 seconds
#
# Revision: 1
# Processed by: cddbd v1.5.2PL0 Copyright (c) Steve Scherf et al.
# Submitted via: CDex 1.51
#
DISCID=b90ef70e
DTITLE=dmp All Star - A Loyal Tribute to Hist Majesty the King on His Illustrious Occasion of His 72nd Birthday
DYEAR=2000
DGENRE=Jazz
TTITLE0=ดวงใจกับความรัก (Never Mind the H.M. Blues)
TTITLE1=ฝัน (Somewhere Somehow)
TTITLE2=ไกลกังวล (When)
TTITLE3=แก้วตาขวัญใจ (Love Light in My Heart)
TTITLE4=แสงเดือน (Magic Beams)
TTITLE5=Oh I Say
TTITLE6=เกาะในฝัน (Dream Island)
TTITLE7=ลมหนาว (Love in Spring)
TTITLE8=ยามเย็น (Love at Sundown)
TTITLE9=ค่ำแล้ว (Lullaby)
TTITLE10=ชะตาชีวิต (H.M. Blues)
TTITLE11=สายฝน (Falling Rain)
TTITLE12=พรปีใหม่ (New Year Greetings)
TTITLE13=เพลงบรรเลงถวาย (Royal Blues)
EXTD=YEAR: 2000
EXTT0=
EXTT1=
EXTT2=
EXTT3=
EXTT4=
EXTT5=
EXTT6=
EXTT7=
EXTT8=
EXTT9=
EXTT10=
EXTT11=
EXTT12=
EXTT13=
PLAYORDER=
